<?xml version="1.0" encoding="UTF-8" standalone="no"?>
<!-- Created with Inkscape (http://www.inkscape.org/) -->

<svg
   width="419.99963mm"
   height="594.00018mm"
   viewBox="0 0 419.99963 594.00018"
   version="1.1"
   id="svg5"
   xml:space="preserve"
   sodipodi:docname="Poster.svg"
   inkscape:version="1.2.1 (9c6d41e410, 2022-07-14)"
   xmlns:inkscape="http://www.inkscape.org/namespaces/inkscape"
   xmlns:sodipodi="http://sodipodi.sourceforge.net/DTD/sodipodi-0.dtd"
   xmlns="http://www.w3.org/2000/svg"
   xmlns:svg="http://www.w3.org/2000/svg"><sodipodi:namedview
     id="namedview7"
     pagecolor="#505050"
     bordercolor="#eeeeee"
     borderopacity="1"
     inkscape:showpageshadow="0"
     inkscape:pageopacity="0"
     inkscape:pagecheckerboard="0"
     inkscape:deskcolor="#505050"
     inkscape:document-units="mm"
     showgrid="false"
     inkscape:zoom="0.26110523"
     inkscape:cx="1099.1737"
     inkscape:cy="936.40407"
     inkscape:window-width="1920"
     inkscape:window-height="1010"
     inkscape:window-x="-6"
     inkscape:window-y="-6"
     inkscape:window-maximized="1"
     inkscape:current-layer="svg5"><inkscape:grid
       type="xygrid"
       id="grid2839" /></sodipodi:namedview><defs
     id="defs2"><clipPath
       clipPathUnits="userSpaceOnUse"
       id="clipPath158"><path
         d="M 0,0 H 1190.551 V 1683.78 H 0 Z"
         id="path156" /></clipPath></defs><g
     inkscape:label="Ebene 1"
     inkscape:groupmode="layer"
     id="layer1"
     transform="translate(-220.00001)" /><path
     d="M -5.0620427e-6,594.00018 H 420.00026 V 3.6762778e-4 H -5.0620427e-6 Z"
     style="fill:#ffffff;fill-opacity:1;fill-rule:nonzero;stroke:none;stroke-width:0.352778"
     id="path142" /><g
     id="g144"
     transform="matrix(0.35277776,0,0,-0.35277778,-5.0620427e-6,129.57921)"
     style="fill:#fdc300;fill-opacity:1;stroke-width:1.00062994;stroke-dasharray:none"><path
       d="m 0,0 v -1044.157 l 355.187,-272.312 h 21.077 l 814.288,337.314 v 675.589 L 160.758,123.329 Z"
       style="fill:#fdc300;fill-opacity:1;fill-rule:nonzero;stroke:none;stroke-width:1.00063;stroke-dasharray:none"
       id="path146" /></g><g
     id="g148"
     transform="matrix(0.35277776,0,0,-0.35277778,405.86692,26.308947)"><path
       d="M 0,0 H -31.312 L 0,12.97 v 4.323 H -31.312 L 0,30.263 v 4.323 H -167.093 V 30.263 H -11.297 L -42.609,17.293 H -167.093 V 12.97 H -53.046 L -84.358,0 h -82.735 v -4.323 h 72.298 L -168,-34.646 l 1.654,-3.994 82.848,34.317 h 30.452 L -168,-51.938 l 1.654,-3.995 124.597,51.61 h 30.452 L -168,-69.232 -166.346,-73.226 0,-4.323 Z m -42.609,0 h -30.452 l 31.312,12.97 h 30.452 z"
       style="fill:#86827c;fill-opacity:1;fill-rule:nonzero;stroke:none"
       id="path150" /></g><g
     id="g152"
     transform="matrix(0.35277776,0,0,-0.35277778,-5.0620427e-6,594.00018)"><g
       id="g154"
       clip-path="url(#clipPath158)"><g
         id="g160"
         transform="translate(821.6486,1604.8805)"><path
           d="M 0,0 V 38.909 H -4.871 V 22.766 h -18.013 v 16.143 h -4.871 V 0 h 4.871 V 18.517 H -4.871 V 0 Z m 7.42,10.531 c 2.605,-7.534 7.816,-11.046 15.746,-11.046 3.512,0 7.307,0.68 10.139,2.833 2.833,2.152 4.362,5.324 4.362,8.836 0,3.059 -1.19,5.721 -3.625,7.703 -1.983,1.7 -4.532,2.436 -7.081,3.002 l -5.834,1.417 c -3.625,0.849 -7.024,1.812 -7.024,6.174 0,4.248 4.645,6.174 8.327,6.174 4.135,0 8.666,-2.606 9.516,-6.854 l 4.418,1.189 c -2.096,6.288 -7.307,9.516 -13.821,9.516 -6.74,0 -13.198,-3.228 -13.198,-10.705 0,-2.719 1.133,-5.381 3.172,-7.194 2.04,-1.869 4.419,-2.492 7.024,-3.115 l 6.458,-1.586 c 3.398,-0.85 6.627,-2.436 6.627,-6.344 0,-1.869 -0.907,-3.852 -2.379,-4.985 C 28.434,4.13 25.602,3.62 23.28,3.62 c -5.438,0 -9.913,2.493 -11.499,7.874 z M 65.648,0 v 15.855 h 8.723 c 3.512,0 6.74,0.623 9.346,3.172 2.152,2.096 3.398,5.211 3.398,8.213 0,3.286 -1.416,6.911 -3.965,9.063 -2.662,2.209 -6.004,2.606 -9.346,2.606 H 60.776 V 0 Z m 0,19.877 v 14.954 h 8.553 c 1.982,0 3.625,-0.17 5.268,-1.473 1.869,-1.473 2.719,-3.795 2.719,-6.118 0,-1.982 -0.737,-3.964 -2.153,-5.381 -1.813,-1.755 -3.852,-1.982 -6.174,-1.982 z M 98.387,0 v 18.461 h 15.69 v 3.908 h -15.69 v 12.348 h 18.919 v 4.192 H 93.516 V 0 Z"
           style="fill:#86827c;fill-opacity:1;fill-rule:nonzero;stroke:none"
           id="path162" /></g></g></g><path
     d="M -5.0620427e-6,594.00018 H 420.00026 V 555.00025 H -5.0620427e-6 Z"
     style="fill:#ffffff;fill-opacity:1;fill-rule:nonzero;stroke:none;stroke-width:0.352778"
     id="path164" /><text
     xml:space="preserve"
     style="font-variant:normal;font-weight:normal;font-stretch:normal;font-size:5.29167px;font-family:'Franklin Gothic Book';-inkscape-font-specification:FranklinGothic-Book;writing-mode:lr-tb;fill:#86827c;fill-opacity:1;fill-rule:nonzero;stroke:none;stroke-width:0.352778"
     id="text184"
     x="192.35918"
     y="563.565"><tspan
       x="192.35918 195.7617 198.51338 200.97928 203.83681 206.29213 208.75804 211.61555 214.48363 215.7007 218.45766 219.78059 222.73863 224.19173 226.94337 228.72139 230.95976 233.81725 236.5742 237.786 242.09343"
       y="563.565"
       sodipodi:role="line"
       id="tspan166"
       style="stroke-width:0.352778">Hochschule Pforzheim </tspan><tspan
       x="192.35918 195.04735 197.91542 200.77289 202.51917 205.27614 208.14421 210.99641 212.31932 215.17155 218.03963 219.68852 222.15443 225.01192"
       y="569.91498"
       sodipodi:role="line"
       id="tspan168"
       style="stroke-width:0.352778">Führend durch </tspan><tspan
       x="192.35918 195.23732 197.99428 199.76697 202.22229 205.04805 207.80501 210.45613 212.08598 213.29778 215.59804 218.355 221.11992 224.56374 227.32069 229.78661 232.64409 235.09944 237.8564"
       y="576.26495"
       sodipodi:role="line"
       id="tspan170"
       style="stroke-width:0.352778">Perspektivenwechsel</tspan><tspan
       x="285.6936 288.59341 291.46149 294.05969 295.27148 298.13959 300.89648 303.65347 305.39972 306.61154 309.47961 312.07782 313.40073 316.35876"
       y="563.565"
       sodipodi:role="line"
       id="tspan172"
       style="stroke-width:0.352778">Engineering PF</tspan><tspan
       x="285.6936 289.97986 292.77911 295.23447 296.77063 299.52756 301.29977 303.75513 305.38492 308.25302 311.10522 312.31702 315.07394 317.94202 320.54019 323.33948 326.20755 328.79944"
       y="569.91498"
       sodipodi:role="line"
       id="tspan174"
       style="stroke-width:0.352778">Masterstudiengang </tspan><tspan
       x="285.6936 289.97986 292.73682 295.2027 298.06018 300.8595 302.48935 304.13187 306.88351 309.75162 310.96341 313.41876 315.88464 318.74213 321.49905 322.82196 325.83292 328.02896 330.48428 332.01886 334.77582 339.08325 341.84021 344.70828 346.33813 349.85178 351.06357 353.52948 356.18063 357.39771 360.26578 363.13388 365.72467"
       y="576.26495"
       sodipodi:role="line"
       id="tspan176"
       style="stroke-width:0.352778">Mechatronische Systementwicklung </tspan><tspan
       x="285.6936 288.26004 289.47183 292.22879 293.68558 296.44254 299.31061 302.15225 303.79846 306.55014 309.41824 312.28635 315.04327 316.78949 318.1124 321.12332 322.75317 324.49942 327.29871 330.29907 333.05603 334.37894 337.47986"
       y="582.61499"
       sodipodi:role="line"
       id="tspan178"
       style="stroke-width:0.352778">Tiefenbronner Straße 65</tspan><tspan
       x="285.6936 288.79449 291.59219 294.33115 297.43207 300.53299 301.85593 304.81393 306.284 309.03564 310.81363 313.052 315.90952 318.66644 319.8782"
       y="588.96497"
       sodipodi:role="line"
       id="tspan180"
       style="stroke-width:0.352778">75175 Pforzheim</tspan><tspan
       x="379.02792 381.88541 384.34076 385.66367 388.48944 389.95468 392.70636 394.48434 396.72275 399.58023 402.33719 403.54898 407.85638 409.17932 412.03152"
       y="563.565"
       sodipodi:role="line"
       id="tspan182"
       style="stroke-width:0.352778">hs-pforzheim.de</tspan></text><text
     xml:space="preserve"
     style="font-variant:normal;font-weight:normal;font-stretch:normal;font-size:15.875px;font-family:'Franklin Gothic Book';-inkscape-font-specification:FranklinGothic-Book;writing-mode:lr-tb;fill:#fdc300;fill-opacity:1;fill-rule:nonzero;stroke:none;stroke-width:0.352778"
     id="text190"
     x="19.306993"
     y="27.010786"><tspan
       sodipodi:role="line"
       id="tspan188"
       style="stroke-width:0.352778;fill:#fdc300;fill-opacity:1"
       x="19.306993"
       y="27.010786">Modelica -Bibliothek</tspan><tspan
       sodipodi:role="line"
       style="stroke-width:0.352778;fill:#fdc300;fill-opacity:1"
       x="19.306993"
       y="46.865883"
       id="tspan758">Konturenflug einer Drohne</tspan><tspan
       sodipodi:role="line"
       style="stroke-width:0.352778;fill:#fdc300;fill-opacity:1"
       x="19.306993"
       y="66.720985"
       id="tspan760">Gruppe 1</tspan><tspan
       sodipodi:role="line"
       style="stroke-width:0.352778;fill:#fdc300;fill-opacity:1"
       x="19.306993"
       y="86.57608"
       id="tspan762">Christoph Koscheck, Alexander Leitz, Paul Smidt</tspan></text></svg>
